<svg width="24" height="24" viewBox="0 0 24 24" fill="none" xmlns="http://www.w3.org/2000/svg">
    <path d="M4 7C4 6.44772 4.44772 6 5 6C5.55228 6 6 6.44772 6 7V17C6 17.5523 5.55228 18 5 18C4.44772 18 4 17.5523 4 17V7Z" fill="#9CA3AF"/>
    <path d="M12.9385 6.29128L8.26355 11.2905C7.91215 11.6666 7.91215 12.3322 8.26355 12.7097L12.9385 17.7089C13.3036 18.0984 13.8934 18.097 14.2559 17.7049C14.6185 17.3127 14.6185 16.6805 14.2535 16.2897L11.1778 12.9991H19.0687C19.584 12.9991 20 12.551 20 11.9987C20 11.4465 19.584 10.9984 19.0687 10.9984H11.1778L14.2535 7.70914C14.436 7.51307 14.5266 7.25697 14.5266 6.99954C14.5266 6.74478 14.436 6.48868 14.2559 6.29395C13.8934 5.90313 13.3036 5.9018 12.9385 6.29128Z" fill="#9CA3AF"/>
</svg>
