<svg width="24" height="24" viewBox="0 0 24 24" fill="none" xmlns="http://www.w3.org/2000/svg">
    <path d="M4 7C4 6.44772 4.44772 6 5 6C5.55228 6 6 6.44772 6 7V17C6 17.5523 5.55228 18 5 18C4.44772 18 4 17.5523 4 17V7Z" fill="#9CA3AF"/>
    <path d="M15.0615 17.7087L19.7365 12.7095C20.0878 12.3334 20.0878 11.6678 19.7365 11.2903L15.0615 6.29111C14.6964 5.90163 14.1066 5.90297 13.7441 6.29511C13.3815 6.68726 13.3815 7.3195 13.7465 7.71031L16.8222 11.0009H8.93127C8.41597 11.0009 8 11.449 8 12.0013C8 12.5535 8.41597 13.0016 8.93127 13.0016H16.8222L13.7465 16.2909C13.564 16.4869 13.4734 16.743 13.4734 17.0005C13.4734 17.2552 13.564 17.5113 13.7441 17.7061C14.1066 18.0969 14.6964 18.0982 15.0615 17.7087Z" fill="#9CA3AF"/>
</svg>
