<svg width="8" height="8" viewBox="0 0 8 8" fill="none" xmlns="http://www.w3.org/2000/svg">
<path fill-rule="evenodd" clip-rule="evenodd" d="M2.48898 0.355374C2.87998 0.337374 3.00465 0.333374 4.00065 0.333374C4.99665 0.333374 5.12132 0.337707 5.51198 0.355374C5.90265 0.373041 6.16932 0.435374 6.40265 0.525707C6.64698 0.618041 6.86865 0.762374 7.05198 0.949041C7.23865 1.13204 7.38265 1.35337 7.47465 1.59804C7.56532 1.83137 7.62732 2.09804 7.64532 2.48804C7.66332 2.87971 7.66732 3.00437 7.66732 4.00004C7.66732 4.99604 7.66298 5.12071 7.64532 5.51171C7.62765 5.90171 7.56532 6.16837 7.47465 6.40171C7.38265 6.64641 7.23841 6.86811 7.05198 7.05137C6.86865 7.23804 6.64698 7.38204 6.40265 7.47404C6.16932 7.56471 5.90265 7.62671 5.51265 7.64471C5.12132 7.66271 4.99665 7.66671 4.00065 7.66671C3.00465 7.66671 2.87998 7.66237 2.48898 7.64471C2.09898 7.62704 1.83232 7.56471 1.59898 7.47404C1.35429 7.38203 1.13259 7.23779 0.949318 7.05137C0.762778 6.86826 0.618423 6.64667 0.526318 6.40204C0.435984 6.16871 0.373984 5.90204 0.355984 5.51204C0.337984 5.12037 0.333984 4.99571 0.333984 4.00004C0.333984 3.00404 0.338318 2.87937 0.355984 2.48871C0.373651 2.09804 0.435984 1.83137 0.526318 1.59804C0.618559 1.3534 0.763024 1.13181 0.949651 0.948707C1.13266 0.762208 1.35414 0.617855 1.59865 0.525707C1.83198 0.435374 2.09865 0.373374 2.48865 0.355374H2.48898ZM5.48232 1.01537C5.09565 0.997707 4.97965 0.994041 4.00065 0.994041C3.02165 0.994041 2.90565 0.997707 2.51898 1.01537C2.16132 1.03171 1.96732 1.09137 1.83798 1.14171C1.66698 1.20837 1.54465 1.28737 1.41632 1.41571C1.29467 1.53406 1.20104 1.67813 1.14232 1.83737C1.09198 1.96671 1.03232 2.16071 1.01598 2.51837C0.998318 2.90504 0.994651 3.02104 0.994651 4.00004C0.994651 4.97904 0.998318 5.09504 1.01598 5.48171C1.03232 5.83937 1.09198 6.03337 1.14232 6.16271C1.20098 6.32171 1.29465 6.46604 1.41632 6.58437C1.53465 6.70604 1.67898 6.79971 1.83798 6.85837C1.96732 6.90871 2.16132 6.96837 2.51898 6.98471C2.90565 7.00237 3.02132 7.00604 4.00065 7.00604C4.97998 7.00604 5.09565 7.00237 5.48232 6.98471C5.83998 6.96837 6.03398 6.90871 6.16332 6.85837C6.33432 6.79171 6.45665 6.71271 6.58498 6.58437C6.70665 6.46604 6.80032 6.32171 6.85898 6.16271C6.90932 6.03337 6.96898 5.83937 6.98532 5.48171C7.00298 5.09504 7.00665 4.97904 7.00665 4.00004C7.00665 3.02104 7.00298 2.90504 6.98532 2.51837C6.96898 2.16071 6.90932 1.96671 6.85898 1.83737C6.79232 1.66637 6.71332 1.54404 6.58498 1.41571C6.46663 1.29406 6.32255 1.20044 6.16332 1.14171C6.03398 1.09137 5.83998 1.03171 5.48232 1.01537ZM3.53232 5.13037C3.79387 5.23925 4.08511 5.25395 4.35629 5.17195C4.62748 5.08995 4.86178 4.91635 5.01919 4.68079C5.17659 4.44523 5.24734 4.16233 5.21933 3.88041C5.19133 3.59849 5.06632 3.33503 4.86565 3.13504C4.73773 3.0072 4.58306 2.90931 4.41276 2.84842C4.24247 2.78753 4.06079 2.76516 3.88082 2.78291C3.70084 2.80066 3.52704 2.8581 3.37192 2.95108C3.2168 3.04407 3.08423 3.17029 2.98375 3.32066C2.88327 3.47103 2.81738 3.6418 2.79082 3.82069C2.76427 3.99958 2.7777 4.18214 2.83016 4.35521C2.88263 4.52829 2.97281 4.68758 3.09422 4.82161C3.21564 4.95565 3.36526 5.0611 3.53232 5.13037ZM2.66798 2.66737C2.84299 2.49237 3.05076 2.35354 3.27942 2.25883C3.50808 2.16411 3.75315 2.11537 4.00065 2.11537C4.24815 2.11537 4.49323 2.16411 4.72189 2.25883C4.95054 2.35354 5.15831 2.49237 5.33332 2.66737C5.50833 2.84238 5.64715 3.05015 5.74186 3.27881C5.83658 3.50747 5.88533 3.75254 5.88533 4.00004C5.88533 4.24754 5.83658 4.49262 5.74186 4.72127C5.64715 4.94993 5.50833 5.1577 5.33332 5.33271C4.97987 5.68615 4.5005 5.88472 4.00065 5.88472C3.5008 5.88472 3.02143 5.68615 2.66798 5.33271C2.31454 4.97926 2.11598 4.49989 2.11598 4.00004C2.11598 3.50019 2.31454 3.02082 2.66798 2.66737ZM6.30332 2.39604C6.34669 2.35513 6.3814 2.30593 6.40542 2.25137C6.42943 2.1968 6.44225 2.13796 6.44312 2.07835C6.44399 2.01874 6.43289 1.95956 6.41048 1.90431C6.38807 1.84906 6.3548 1.79888 6.31264 1.75672C6.27048 1.71456 6.22029 1.68129 6.16505 1.65888C6.1098 1.63647 6.05062 1.62537 5.99101 1.62624C5.93139 1.6271 5.87256 1.63993 5.81799 1.66394C5.76342 1.68795 5.71423 1.72267 5.67332 1.76604C5.59375 1.85038 5.55019 1.96241 5.55189 2.07835C5.55358 2.19429 5.60038 2.305 5.68237 2.38699C5.76436 2.46898 5.87507 2.51578 5.99101 2.51747C6.10694 2.51916 6.21898 2.4756 6.30332 2.39604Z" fill="#9CA3AF"/>
</svg>
