<svg width="8" height="8" viewBox="0 0 8 8" fill="none" xmlns="http://www.w3.org/2000/svg">
<path fill-rule="evenodd" clip-rule="evenodd" d="M0.333984 4.00004C0.333984 1.975 1.97561 0.333374 4.00065 0.333374C6.0257 0.333374 7.66732 1.975 7.66732 4.00004C7.66732 6.02508 6.0257 7.66671 4.00065 7.66671C1.97561 7.66671 0.333984 6.02508 0.333984 4.00004ZM3.72384 1.15769C3.84409 1.03054 3.93774 1.00004 4.00065 1.00004C4.06356 1.00004 4.15721 1.03054 4.27746 1.15769C4.39837 1.28555 4.52262 1.48845 4.63397 1.76681C4.82775 2.25128 4.96267 2.91454 4.9938 3.66671H3.00751C3.03863 2.91454 3.17355 2.25128 3.36733 1.76681C3.47868 1.48845 3.60293 1.28555 3.72384 1.15769ZM2.34032 3.66671C2.37172 2.84432 2.51845 2.09396 2.74835 1.51922C2.79098 1.41264 2.83718 1.31032 2.88701 1.21354C1.88015 1.6163 1.14252 2.54896 1.01896 3.66671H2.34032ZM1.01896 4.33337H2.34032C2.37172 5.15576 2.51845 5.90612 2.74835 6.48086C2.79098 6.58744 2.83718 6.68976 2.88701 6.78654C1.88015 6.38378 1.14252 5.45112 1.01896 4.33337ZM6.98234 3.66671C6.85878 2.54896 6.12115 1.6163 5.11429 1.21354C5.16412 1.31032 5.21032 1.41264 5.25295 1.51922C5.48285 2.09396 5.62958 2.84432 5.66098 3.66671H6.98234ZM5.66098 4.33337H6.98234C6.85878 5.45112 6.12115 6.38378 5.11429 6.78654C5.16412 6.68976 5.21032 6.58744 5.25295 6.48086C5.48285 5.90612 5.62958 5.15576 5.66098 4.33337ZM4.9938 4.33337C4.96267 5.08554 4.82775 5.7488 4.63397 6.23327C4.52262 6.51163 4.39837 6.71453 4.27746 6.84239C4.15721 6.96954 4.06356 7.00004 4.00065 7.00004C3.93775 7.00004 3.84409 6.96954 3.72384 6.84239C3.60293 6.71453 3.47868 6.51163 3.36733 6.23327C3.17355 5.7488 3.03863 5.08554 3.00751 4.33337H4.9938Z" fill="#9CA3AF"/>
</svg>
