<svg width="120" height="120" viewBox="0 0 120 120" fill="none" xmlns="http://www.w3.org/2000/svg">
<path opacity="0.4" d="M110 59.9991C110 87.6191 87.615 109.999 60 109.999C32.385 109.999 10 87.6191 10 59.9991C10 32.3891 32.385 9.99908 60 9.99908C87.615 9.99908 110 32.3891 110 59.9991" fill="#F87171"/>
<path fill-rule="evenodd" clip-rule="evenodd" d="M64.9432 63.3374C64.9432 65.917 62.7102 68.0202 59.9716 68.0202C57.233 68.0202 55 65.917 55 63.3374V39.6828C55 37.1032 57.233 35 59.9716 35C62.7102 35 64.9432 37.1032 64.9432 39.6828V63.3374ZM55.0281 80.3174C55.0281 77.7379 57.2497 75.6347 59.9713 75.6347C62.7724 75.6347 64.9997 77.7379 64.9997 80.3174C64.9997 82.897 62.7724 85.0002 60.0281 85.0002C57.2724 85.0002 55.0281 82.897 55.0281 80.3174Z" fill="#F87171"/>
</svg>
