<svg width="21" height="20" viewBox="0 0 21 20" fill="none" xmlns="http://www.w3.org/2000/svg">
<path d="M16.6537 8.82056L11.099 3.62616C10.6811 3.23571 9.94152 3.23571 9.5221 3.62616L3.96743 8.82056C3.53467 9.22618 3.53616 9.88151 3.97187 10.2844C4.40759 10.6872 5.11008 10.6872 5.54432 10.2816L9.2005 6.86421L9.2005 15.6319C9.2005 16.2045 9.69846 16.6667 10.312 16.6667C10.9256 16.6667 11.4236 16.2045 11.4236 15.6319L11.4236 6.86421L15.0783 10.2816C15.2961 10.4844 15.5807 10.5851 15.8667 10.5851C16.1498 10.5851 16.4343 10.4844 16.6507 10.2844C17.0849 9.88151 17.0864 9.22618 16.6537 8.82056" fill="#7C3AED"/>
</svg>
