<svg width="12" height="12" viewBox="0 0 12 12" fill="none" xmlns="http://www.w3.org/2000/svg">
<path d="M10.488 9.88456V1.5H4.83691V3.18053H1.56519V9.88458H1V10.9999L6.02661 11H11.0532V9.88458L10.488 9.88456ZM5.46139 9.32536L3.23365 9.32544V8.20711H5.46731L5.46139 9.32536ZM5.46139 7.65082L3.23365 7.6509V6.53257H5.46731L5.46139 7.65082ZM5.46139 5.9733L3.23365 5.97337V4.85803H5.46731L5.46139 5.9733ZM8.81934 9.32552H7.70102V8.20719H8.81934V9.32552ZM8.81934 7.65097H7.70102V6.53265H8.81934V7.65097ZM8.81934 5.97345H7.70102V4.85811H8.81934V5.97345ZM8.81934 4.29891H7.70102V3.18058H8.81934V4.29891Z" fill="#9CA3AF"/>
</svg>
