<svg width="16" height="16" viewBox="0 0 16 16" fill="none" xmlns="http://www.w3.org/2000/svg">
<path opacity="0.4" d="M14.6668 7.99967C14.6668 11.6823 11.6822 14.6663 8.00016 14.6663C4.31816 14.6663 1.3335 11.6823 1.3335 7.99967C1.3335 4.31834 4.31816 1.33301 8.00016 1.33301C11.6822 1.33301 14.6668 4.31834 14.6668 7.99967Z" fill="#9CA3AF"/>
<path d="M8.8022 6.25716C8.8022 6.03738 8.71978 5.85881 8.55495 5.72145C8.3956 5.58409 8.18407 5.5154 7.92033 5.5154C7.38187 5.5154 7.0467 5.76815 6.91484 6.27365H6C6.05495 5.80661 6.25549 5.422 6.60165 5.1198C6.9478 4.8176 7.39286 4.6665 7.93681 4.6665C8.49176 4.6665 8.93132 4.81211 9.25549 5.10332C9.58517 5.39453 9.75 5.76266 9.75 6.20771C9.75 6.37255 9.72802 6.52639 9.68407 6.66925C9.64011 6.81211 9.59615 6.92475 9.5522 7.00716C9.51374 7.08958 9.43681 7.18299 9.32143 7.28738C9.21154 7.38628 9.13462 7.45222 9.09066 7.48519C9.0467 7.51266 8.95604 7.5731 8.81868 7.6665C8.8022 7.67749 8.76648 7.70222 8.71154 7.74068C8.65659 7.77914 8.62088 7.80387 8.6044 7.81486C8.58791 7.82584 8.55495 7.85057 8.50549 7.88903C8.46154 7.922 8.43132 7.94672 8.41484 7.96321C8.40385 7.9742 8.38187 7.99892 8.3489 8.03738C8.31593 8.07035 8.29396 8.09782 8.28297 8.1198C8.27198 8.14178 8.25549 8.172 8.23352 8.21046C8.21154 8.24892 8.19506 8.28738 8.18407 8.32584C8.17857 8.35881 8.17308 8.39727 8.16758 8.44123C8.16209 8.48519 8.15934 8.53189 8.15934 8.58134V8.74617H7.26923V8.49892C7.26923 8.26266 7.30769 8.05936 7.38462 7.88903C7.46703 7.71321 7.55769 7.58134 7.65659 7.49343C7.75549 7.40002 7.90934 7.28464 8.11813 7.14727C8.27747 7.03738 8.39286 6.95497 8.46429 6.90002C8.54121 6.83958 8.61538 6.75167 8.68681 6.63628C8.76374 6.5209 8.8022 6.39453 8.8022 6.25716ZM7.3022 9.62804C7.42308 9.51266 7.56868 9.45497 7.73901 9.45497C7.90934 9.45497 8.0522 9.51266 8.16758 9.62804C8.28846 9.74343 8.3489 9.88628 8.3489 10.0566C8.3489 10.2269 8.28846 10.3725 8.16758 10.4934C8.0522 10.6088 7.90934 10.6665 7.73901 10.6665C7.56868 10.6665 7.42308 10.6088 7.3022 10.4934C7.18681 10.3725 7.12912 10.2269 7.12912 10.0566C7.12912 9.88628 7.18681 9.74343 7.3022 9.62804Z" fill="#9CA3AF"/>
</svg>
