<svg width="12" height="12" viewBox="0 0 12 12" fill="none" xmlns="http://www.w3.org/2000/svg">
<path d="M2.31641 3.76266C2.31641 3.68529 2.36079 3.61304 2.43469 3.57012L6.68469 1.10175C6.86121 0.999232 7.09766 1.10947 7.09766 1.2943V10.8125H2.31641V3.76266Z" fill="#9CA3AF"/>
<g opacity="0.4">
<path d="M9.68359 5.72848C9.68359 5.67268 9.65233 5.62058 9.60029 5.58963L6.60724 3.80956C6.48292 3.73562 6.31641 3.81512 6.31641 3.94841V10.8125H9.68359V5.72848Z" fill="#9CA3AF"/>
</g>
<path fill-rule="evenodd" clip-rule="evenodd" d="M0.78125 10.4375C0.78125 10.1614 0.887455 9.9375 1.01847 9.9375H10.9815C11.1125 9.9375 11.2188 10.1614 11.2188 10.4375C11.2188 10.7136 11.1125 10.9375 10.9815 10.9375H1.01847C0.887455 10.9375 0.78125 10.7136 0.78125 10.4375Z" fill="#9CA3AF"/>
</svg>
