<svg width="20" height="20" viewBox="0 0 20 20" fill="none" xmlns="http://www.w3.org/2000/svg">
<path d="M3.65665 11.1794L9.21132 16.3738C9.62926 16.7643 10.3688 16.7643 10.7882 16.3738L16.3429 11.1794C16.7756 10.7738 16.7742 10.1185 16.3384 9.71563C15.9027 9.31277 15.2002 9.31277 14.766 9.71839L11.1098 13.1358V4.36808C11.1098 3.79553 10.6118 3.33334 9.99828 3.33334C9.38472 3.33334 8.88676 3.79553 8.88676 4.36808V13.1358L5.23205 9.71839C5.0142 9.51558 4.72964 9.41486 4.44361 9.41486C4.16054 9.41486 3.87599 9.51558 3.65961 9.71563C3.22538 10.1185 3.2239 10.7738 3.65665 11.1794Z" fill="#7C3AED"/>
</svg>
