<svg width="8" height="8" viewBox="0 0 8 8" fill="none" xmlns="http://www.w3.org/2000/svg">
<path fill-rule="evenodd" clip-rule="evenodd" d="M8 4C8 6.209 6.209 8 4 8C1.791 8 0 6.209 0 4C0 1.791 1.791 0 4 0C6.209 0 8 1.791 8 4ZM4.14333 2.953C3.75433 3.11467 2.97667 3.44967 1.81067 3.95767C1.62133 4.033 1.522 4.10667 1.513 4.17867C1.49767 4.30067 1.65033 4.34867 1.85767 4.41367C1.886 4.42267 1.91533 4.43167 1.94533 4.44167C2.14967 4.508 2.42433 4.58567 2.567 4.58867C2.69667 4.59133 2.84133 4.538 3.001 4.42867C4.09033 3.693 4.65267 3.32133 4.688 3.31333C4.713 3.30767 4.74767 3.30033 4.771 3.32133C4.79433 3.342 4.792 3.38133 4.78967 3.392C4.77433 3.45633 4.17633 4.01267 3.86633 4.30067C3.76967 4.39033 3.70133 4.454 3.68733 4.46867C3.656 4.501 3.624 4.532 3.59333 4.56167C3.40333 4.74433 3.26133 4.88167 3.60133 5.10567C3.76467 5.21333 3.89533 5.30233 4.02567 5.391C4.168 5.488 4.31 5.58467 4.494 5.70533C4.54067 5.736 4.58533 5.76767 4.629 5.79867C4.79467 5.917 4.94367 6.023 5.12767 6.00633C5.23433 5.99633 5.345 5.896 5.401 5.59633C5.53333 4.88767 5.794 3.353 5.85433 2.72033C5.85801 2.6678 5.85577 2.61503 5.84767 2.563C5.84282 2.52098 5.82235 2.48231 5.79033 2.45467C5.74267 2.41567 5.66867 2.40733 5.63533 2.408C5.485 2.41067 5.25433 2.491 4.14333 2.953Z" fill="#9CA3AF"/>
</svg>
