<svg width="12" height="12" viewBox="0 0 12 12" fill="none" xmlns="http://www.w3.org/2000/svg">
<path d="M11 3.92687V2.67145H9.44333V1H6.11713V2.67055H1.00795V4.48796H1.84492V6.0619C1.56737 6.13881 1.32888 6.31633 1.176 6.55965C1.02313 6.80289 0.967029 7.09436 1.01878 7.37666C1.07045 7.65905 1.2262 7.91193 1.45544 8.0857C1.68467 8.25947 1.97083 8.3416 2.25763 8.31595C2.54452 8.29028 2.8114 8.15861 3.00587 7.94691C3.20033 7.73523 3.30834 7.45872 3.30876 7.17167H2.69019C2.69019 7.31331 2.63377 7.44908 2.5333 7.54928C2.43274 7.64941 2.29652 7.70564 2.15438 7.70564C2.01225 7.70564 1.87601 7.64941 1.77546 7.54928C1.67499 7.44908 1.61857 7.31332 1.61857 7.17167C1.61857 7.03002 1.67499 6.89426 1.77546 6.79406C1.87602 6.69394 2.01224 6.6377 2.15438 6.6377H2.46382V4.48801H3.0992V3.92692H6.1176V10.1157H1.04495V11H10.9685V10.1157H9.44335V3.92692L11 3.92687ZM8.82523 6.84572H6.98841L8.82514 4.41857L8.82523 6.84572ZM8.4204 7.46215L6.73612 9.68802L6.73604 7.46215H8.4204ZM6.73604 1.6165H8.82556V2.67061H6.73604V1.6165ZM8.42244 3.92647L6.73604 6.15526V3.92689L8.42244 3.92647ZM7.18703 10.1157L8.82472 7.95051V10.1157H7.18703Z" fill="#9CA3AF"/>
</svg>
