<svg width="24" height="24" viewBox="0 0 24 24" fill="none" xmlns="http://www.w3.org/2000/svg">
<path d="M11.4652 7.92844L16.9764 12.3158C17.1093 12.4207 17.132 12.6132 17.0283 12.7474L10.4946 21.1348C10.0839 21.6529 9.47865 21.9461 8.83015 21.9569L5.26339 22.0002C5.07317 22.0023 4.90672 21.8725 4.86349 21.6865L4.05286 18.2142C3.91235 17.576 4.05286 16.9162 4.46358 16.4078L11.0296 7.98036C11.1356 7.84515 11.3312 7.82135 11.4652 7.92844Z" fill="white"/>
<path d="M19.4436 9.70085L18.3811 11.0075C18.2741 11.1406 18.0817 11.1622 17.9488 11.0562C16.6572 10.0264 13.3498 7.38386 12.4322 6.65156C12.2982 6.54339 12.2798 6.35085 12.3879 6.21672L13.4125 4.96304C14.342 3.784 15.9633 3.67583 17.2711 4.70343L18.7734 5.88248C19.3895 6.35842 19.8002 6.9858 19.9407 7.64563C20.1029 8.37145 19.9299 9.08428 19.4436 9.70085Z" fill="white"/>
</svg>
