<svg width="60" height="60" viewBox="0 0 60 60" fill="none" xmlns="http://www.w3.org/2000/svg">
<path d="M46.6023 33.5417H33.7476V46.2849C33.7476 48.3367 32.0697 50 30 50C27.9303 50 26.2524 48.3367 26.2524 46.2849V33.5417H13.3977C11.4671 33.3435 10 31.7307 10 29.8066C10 27.8825 11.4671 26.2697 13.3977 26.0715H26.2121V13.3683C26.412 11.4544 28.0389 10 29.9799 10C31.9208 10 33.5477 11.4544 33.7476 13.3683V26.0715H46.6023C48.5329 26.2697 50 27.8825 50 29.8066C50 31.7307 48.5329 33.3435 46.6023 33.5417Z" fill="#7C3AED"/>
</svg>
