<svg width="12" height="12" viewBox="0 0 12 12" fill="none" xmlns="http://www.w3.org/2000/svg">
<path d="M10.623 8.23711L9.29698 7.57411L6.28982 9.07775C6.24604 9.09964 6.19773 9.11106 6.14876 9.11106C6.09979 9.11106 6.05155 9.09964 6.00777 9.07775L3.00043 7.57411L1.67437 8.23711C1.62203 8.26324 1.57796 8.30343 1.54714 8.3532C1.51632 8.40298 1.5 8.46037 1.5 8.51893C1.5 8.57742 1.51632 8.63481 1.54714 8.68459C1.57796 8.73437 1.62203 8.77455 1.67437 8.80069L6.00773 10.9666C6.05151 10.9886 6.09975 11 6.14872 11C6.19769 11 6.24601 10.9886 6.28978 10.9666L10.623 8.79994C10.6752 8.77381 10.7191 8.73362 10.7498 8.68391C10.7805 8.63421 10.7967 8.57689 10.7967 8.51848C10.7967 8.46006 10.7805 8.40282 10.7498 8.35311C10.7191 8.30341 10.6752 8.26322 10.623 8.23702L10.623 8.23711Z" fill="#9CA3AF"/>
<path d="M10.623 3.19931L6.28985 1.03338C6.24608 1.01142 6.19777 1 6.1488 1C6.09982 1 6.05158 1.01142 6.00781 1.03338L1.67444 3.20006C1.6221 3.22612 1.57804 3.26638 1.54722 3.31616C1.5164 3.36586 1.50007 3.42325 1.50007 3.48182C1.50007 3.54038 1.5164 3.5977 1.54722 3.64747C1.57803 3.69725 1.6221 3.73744 1.67444 3.76357L6.00781 5.92969C6.05158 5.95158 6.09982 5.963 6.1488 5.963C6.19777 5.963 6.24608 5.95158 6.28985 5.92969L10.623 3.76301C10.6754 3.73687 10.7195 3.69669 10.7503 3.64691C10.7811 3.59713 10.7975 3.53974 10.7975 3.48118C10.7975 3.42269 10.7811 3.3653 10.7503 3.31552C10.7195 3.26575 10.6754 3.22556 10.623 3.19943V3.19931Z" fill="#9CA3AF"/>
<path d="M10.623 5.71849L9.29698 5.0555L6.28982 6.55906C6.24604 6.58102 6.19773 6.59244 6.14876 6.59244C6.09979 6.59244 6.05155 6.58102 6.00777 6.55906L3.00043 5.0555L1.67437 5.71849C1.62203 5.74462 1.57796 5.78481 1.54714 5.83459C1.51632 5.88437 1.5 5.94176 1.5 6.00024C1.5 6.05881 1.51632 6.1162 1.54714 6.16597C1.57796 6.21575 1.62203 6.25594 1.67437 6.28207L6.00773 8.44801C6.05151 8.46997 6.09975 8.48139 6.14872 8.48139C6.19769 8.48139 6.24601 8.46997 6.28978 8.44801L10.623 6.28132C10.6752 6.25512 10.7191 6.21493 10.7498 6.16523C10.7805 6.11552 10.7967 6.05828 10.7967 5.99986C10.7967 5.94145 10.7805 5.8842 10.7498 5.8345C10.7191 5.7848 10.6752 5.74461 10.623 5.7184L10.623 5.71849Z" fill="#9CA3AF"/>
</svg>
