<svg width="12" height="12" viewBox="0 0 12 12" fill="none" xmlns="http://www.w3.org/2000/svg">
<path fill-rule="evenodd" clip-rule="evenodd" d="M3.12893 1H8.87123C9.21808 1 9.5 1.25716 9.5 1.57338V10.4266C9.5 10.743 9.21808 11 8.87123 11H3.12893C2.79181 11 2.5141 10.7564 2.50069 10.4494L2.50052 10.4488V10.4461L2.50034 10.4446V10.4413H2.50017V10.4349L2.5 10.4341V1.56624L2.50017 1.56546V1.55903H2.50034V1.55574L2.50052 1.55417V1.55166L2.50069 1.55087C2.51436 1.24407 2.79163 1.00045 3.12893 1.00045V1ZM5.12673 5.27658H5.82102V6.72358H5.12673V5.27658ZM4.07125 1.68366L6.5067 2.86549C6.63252 2.9268 6.70442 3.04434 6.70442 3.16595C6.70614 5.05532 6.70588 6.94454 6.70588 8.83393C6.70588 8.97546 6.61136 9.09692 6.47669 9.14882L4.07096 10.3162H8.75032V1.68358L4.07125 1.68366Z" fill="#9CA3AF"/>
</svg>
