<svg width="12" height="12" viewBox="0 0 12 12" fill="none" xmlns="http://www.w3.org/2000/svg">
<path fill-rule="evenodd" clip-rule="evenodd" d="M9.88888 8.77776V3.22224C10.5022 3.22224 11 2.72503 11 2.11112C11 1.49777 10.5022 1 9.88888 1C9.27497 1 8.77776 1.49777 8.77776 2.11112H3.22224C3.22224 1.49777 2.72503 1 2.11112 1C1.49721 1 1 1.49777 1 2.11112C1 2.72503 1.49721 3.22224 2.11112 3.22224V8.77776C1.49721 8.77776 1 9.27553 1 9.88888C1 10.5028 1.49721 11 2.11112 11C2.72503 11 3.22224 10.5028 3.22224 9.88888H8.77776C8.77776 10.5028 9.27497 11 9.88888 11C10.5022 11 11 10.5028 11 9.88888C11 9.27553 10.5022 8.77776 9.88888 8.77776ZM2.66658 3.06778C2.8333 2.9711 2.97106 2.83333 3.0683 2.66662H4.33329L2.66658 4.33333V3.06778ZM2.66658 4.88884L4.8889 2.66653H6.00002L2.66664 5.99991L2.66658 4.88884ZM2.66658 6.55548L6.5555 2.66657H7.66662L2.66664 7.66655L2.66658 6.55548ZM2.89328 9.10654C2.82604 9.03881 2.74994 8.98043 2.66658 8.93153V8.22212L8.2221 2.6666H8.93151C8.98041 2.74996 9.03879 2.82606 9.10652 2.8933L2.89328 9.10654ZM9.33326 8.93153C9.16654 9.02877 9.02878 9.16653 8.93154 9.33324H8.22214L9.33326 8.22212V8.93153ZM9.33326 7.66653L7.66655 9.33324H6.55543L9.33327 6.5554L9.33326 7.66653ZM9.33326 5.9999L5.99988 9.33328H4.88875L9.3332 4.88883L9.33326 5.9999ZM9.33326 4.33326L4.33327 9.33324H3.22215L9.3332 3.22219L9.33326 4.33326Z" fill="#9CA3AF"/>
</svg>
