<svg width="32" height="32" viewBox="0 0 32 32" fill="none" xmlns="http://www.w3.org/2000/svg">
<circle cx="16" cy="16" r="16" fill="#DC2626"/>
<path d="M21.7322 14.1164C21.7322 14.1674 21.3325 19.223 21.1042 21.3507C20.9612 22.6564 20.1195 23.4484 18.8569 23.4709C17.8868 23.4926 16.9371 23.5001 16.0027 23.5001C15.0107 23.5001 14.0406 23.4926 13.0989 23.4709C11.8786 23.4416 11.0361 22.6339 10.9004 21.3507C10.6656 19.2155 10.2731 14.1674 10.2658 14.1164C10.2585 13.9627 10.3081 13.8165 10.4088 13.698C10.508 13.5885 10.651 13.5225 10.8012 13.5225H21.2041C21.3537 13.5225 21.4893 13.5885 21.5966 13.698C21.6965 13.8165 21.7468 13.9627 21.7322 14.1164Z" fill="white"/>
<path d="M22.75 11.4826C22.75 11.1744 22.5071 10.9329 22.2153 10.9329H20.0286C19.5836 10.9329 19.197 10.6164 19.0978 10.1702L18.9753 9.62346C18.8039 8.96273 18.2123 8.5 17.5485 8.5H14.4522C13.7811 8.5 13.1954 8.96273 13.0174 9.65946L12.9029 10.1709C12.803 10.6164 12.4164 10.9329 11.9722 10.9329H9.78539C9.49289 10.9329 9.25 11.1744 9.25 11.4826V11.7676C9.25 12.0684 9.49289 12.3174 9.78539 12.3174H22.2153C22.5071 12.3174 22.75 12.0684 22.75 11.7676V11.4826Z" fill="white"/>
</svg>
